<svg width="65mm" height="65mm" viewBox="0 0 65 65" xmlns="http://www.w3.org/2000/svg"><text xml:space="preserve" style="font-style:normal;font-weight:400;font-size:10.5833px;line-height:1.25;font-family:sans-serif;letter-spacing:0;word-spacing:0;fill:#000;fill-opacity:1;stroke:none;stroke-width:.264583" x="149.849" y="117.595" transform="translate(-49.789 -45.944)"/><path d="m1089.43 1161.56-61.83-61.86c6.11-15.63 2.71-33.99-10.2-46.9-13.59-13.6-33.975-16.32-50.284-8.84l29.22 29.23-20.386 20.39-29.899-29.23c-8.155 16.32-4.757 36.71 8.834 50.31 12.911 12.91 31.258 16.31 46.885 10.19l61.84 61.86c2.72 2.72 6.8 2.72 9.51 0l15.63-15.63c3.4-2.72 3.4-7.48.68-9.52z" stroke="#41454b" style="fill:none;stroke-width:4" transform="matrix(.26458 0 0 .26458 -246.36 -261.123)"/><path d="M38.536 38.594v-1.738l.596-.617a14.233 14.233 0 0 0 9.305 3.456c7.898 0 14.3-6.403 14.3-14.304 0-7.9-6.402-14.306-14.3-14.306-7.898 0-14.3 6.406-14.3 14.306 0 3.543 1.298 6.8 3.455 9.308l-.617.596h-1.738L19.888 49.077l3.279 3.278zm0-13.203a9.89 9.89 0 0 1 9.901-9.903c5.48 0 9.9 4.424 9.9 9.903a9.888 9.888 0 0 1-9.9 9.904 9.89 9.89 0 0 1-9.9-9.904z" fill="#41454b"/></svg>